# xmcd
#
# Track frame offsets:
#	150
#	19442
#	44576
#	66663
#	93764
#	120673
#	142135
#	157714
#	179827
#	203341
#	227131
#	262537
#
# Disc length: 3910 seconds
#
# Revision: 3
# Processed by: cddbd v1.4PL0 Copyright (c) Steve Scherf et al.
# Submitted via: EasyCDDAExtractor 5.0.7
#
DISCID=a40f440c
DTITLE=The Phillip Walker Big Band - Live At Biscuits and Blues
DYEAR=2002
DGENRE=Blues
TTITLE0=Hello My Darling
TTITLE1=Don't Be Afraid Of The Dark
TTITLE2=Think
TTITLE3=Crying For My Baby
TTITLE4=Respirator
TTITLE5=Mary Ann
TTITLE6=Reconsider Baby
TTITLE7=Breaking Up Somebody's Home
TTITLE8=90 Proof
TTITLE9=I've Got A Problem
TTITLE10=Along About Midnight
TTITLE11=Linda Lu
EXTD=
EXTT0=
EXTT1=
EXTT2=
EXTT3=
EXTT4=
EXTT5=
EXTT6=
EXTT7=
EXTT8=
EXTT9=
EXTT10=
EXTT11=
PLAYORDER=
